<svg xmlns="http://www.w3.org/2000/svg" width="320" height="240" viewBox="0 0 320 240" role="img" aria-label="Crossover">
  <defs>
    <linearGradient id="g" x1="1" y1="0" x2="0" y2="1">
      <stop offset="0%" stop-color="#f1f5f9"/>
      <stop offset="100%" stop-color="#e2e8f0"/>
    </linearGradient>
  </defs>
  <rect width="320" height="240" fill="url(#g)"/>
  <rect x="28" y="28" width="264" height="184" rx="10" fill="#fff" stroke="#cbd5e1" stroke-width="2"/>
  <!-- mini dashboard grid -->
  <rect x="52" y="88" width="100" height="64" rx="4" fill="#eff6ff" stroke="#93c5fd"/>
  <rect x="168" y="88" width="100" height="64" rx="4" fill="#f8fafc" stroke="#cbd5e1"/>
  <!-- heat cells -->
  <rect x="60" y="98" width="18" height="14" fill="#bfdbfe"/>
  <rect x="82" y="98" width="18" height="14" fill="#60a5fa"/>
  <rect x="104" y="98" width="18" height="14" fill="#1d4ed8"/>
  <rect x="60" y="116" width="18" height="14" fill="#93c5fd"/>
  <rect x="82" y="116" width="18" height="14" fill="#3b82f6"/>
  <rect x="104" y="116" width="18" height="14" fill="#2563eb"/>
  <rect x="60" y="134" width="18" height="14" fill="#dbeafe"/>
  <rect x="82" y="134" width="18" height="14" fill="#93c5fd"/>
  <rect x="104" y="134" width="18" height="14" fill="#60a5fa"/>
  <!-- coverage bars -->
  <rect x="180" y="104" width="76" height="8" rx="2" fill="#94a3b8"/>
  <rect x="180" y="120" width="58" height="8" rx="2" fill="#64748b"/>
  <rect x="180" y="136" width="68" height="8" rx="2" fill="#334155"/>
  <text x="56" y="52" font-family="ui-sans-serif, system-ui, sans-serif" font-size="15" font-weight="700" fill="#0f172a" letter-spacing="0.02em">Crossover</text>
  <text x="56" y="72" font-family="ui-sans-serif, system-ui, sans-serif" font-size="11" fill="#64748b">tests · coverage</text>
</svg>